<svg width="700" height="320" viewBox="0 0 700 320" fill="none" xmlns="http://www.w3.org/2000/svg">
<path d="M0 52C0 23.2812 23.2812 -3.8147e-06 52 -3.8147e-06H648C676.719 -3.8147e-06 700 23.2812 700 52V268C700 296.719 676.719 320 648 320H52C23.2812 320 0 296.719 0 268V52Z" fill="black"/>
<rect width="31" height="31" transform="translate(400.466 148)" fill="white"/>
<g filter="url(#filter0_f_205_19)">
<path d="M379.207 50.0106C404.552 80.2856 383.232 139.878 331.586 183.114C279.941 226.35 217.527 236.857 192.182 206.582C166.837 176.307 188.158 116.714 239.803 73.4784C291.449 30.2425 353.862 19.7356 379.207 50.0106Z" fill="#0029FF" fill-opacity="0.38"/>
</g>
<g filter="url(#filter1_f_205_19)">
<path d="M345.616 17.7873C381.621 -3.34417 440.031 29.3161 476.079 90.7361C512.127 152.156 512.162 219.077 476.157 240.209C440.152 261.34 381.742 228.68 345.694 167.26C309.646 105.84 309.611 38.9189 345.616 17.7873Z" fill="#531A9C" fill-opacity="0.34"/>
</g>
<g filter="url(#filter2_f_205_19)">
<path d="M471.149 238.464C470.774 278.012 415.78 309.552 348.317 308.911C280.854 308.271 226.469 275.692 226.844 236.145C227.22 196.597 282.214 165.057 349.677 165.698C417.14 166.338 471.525 198.917 471.149 238.464Z" fill="#1EA0B1" fill-opacity="0.32"/>
</g>
<g clip-path="url(#clip0_205_19)">
<path d="M434 159.5C434 112.832 396.392 75 350 75C303.608 75 266 112.832 266 159.5C266 206.168 303.608 244 350 244C396.392 244 434 206.168 434 159.5Z" fill="url(#paint0_linear_205_19)"/>
<path d="M316.192 193.928L328.272 179.442C334.896 185.236 343.472 189.228 351.136 189.228C359.904 189.228 364.208 185.751 364.208 180.182C364.208 174.292 358.912 172.408 350.784 169.044L338.704 163.862C329.104 159.918 319.92 151.935 319.92 138.335C319.92 122.803 333.696 110.41 353.056 110.41C364.24 110.43 374.976 114.829 382.992 122.674L372.384 136.017C366.24 131.333 360.4 128.678 353.056 128.678C345.712 128.678 341.2 131.72 341.2 137.079C341.2 142.809 347.28 144.902 355.408 148.153L367.264 152.981C378.624 157.601 385.712 165.214 385.712 178.444C385.712 193.992 372.912 207.416 350.656 207.416C337.899 207.396 325.608 202.586 316.192 193.928Z" fill="white"/>
</g>
<path fill-rule="evenodd" clip-rule="evenodd" d="M476.991 161.024C476.997 160.517 477 160.009 477 159.5C477 158.991 476.997 158.483 476.991 157.976L476.491 157.982C476.497 158.487 476.5 158.993 476.5 159.5C476.5 160.007 476.497 160.513 476.491 161.018L476.991 161.024ZM476.92 164.059L476.42 164.042C476.385 165.05 476.338 166.056 476.279 167.058L476.778 167.088C476.837 166.081 476.884 165.072 476.92 164.059ZM476.564 170.118L476.066 170.077C475.983 171.082 475.888 172.083 475.782 173.082L476.28 173.134C476.386 172.132 476.481 171.127 476.564 170.118ZM475.922 176.153L475.427 176.088C475.296 177.087 475.154 178.083 475.001 179.075L475.495 179.151C475.649 178.155 475.791 177.156 475.922 176.153ZM474.994 182.15L474.502 182.062C474.324 183.053 474.135 184.041 473.934 185.025L474.424 185.125C474.626 184.137 474.816 183.146 474.994 182.15ZM473.781 188.096L473.293 187.984C473.068 188.966 472.832 189.945 472.584 190.918L473.069 191.041C473.317 190.064 473.555 189.082 473.781 188.096ZM472.284 193.977L471.802 193.842C471.53 194.813 471.247 195.778 470.953 196.74L471.431 196.886C471.727 195.921 472.011 194.951 472.284 193.977ZM470.507 199.779L470.032 199.621C469.714 200.578 469.385 201.53 469.045 202.476L469.515 202.645C469.857 201.695 470.187 200.74 470.507 199.779ZM468.453 205.49L467.987 205.309C467.623 206.25 467.249 207.185 466.863 208.114L467.325 208.305C467.712 207.372 468.088 206.434 468.453 205.49ZM466.129 211.096L465.672 210.893C465.263 211.815 464.844 212.731 464.415 213.641L464.867 213.854C465.298 212.941 465.719 212.021 466.129 211.096ZM463.539 216.584L463.092 216.36C462.64 217.261 462.177 218.156 461.705 219.045L462.146 219.279C462.621 218.387 463.085 217.489 463.539 216.584ZM460.689 221.942L460.253 221.697C459.759 222.575 459.254 223.447 458.74 224.313L459.17 224.568C459.686 223.7 460.193 222.824 460.689 221.942ZM457.587 227.158L457.164 226.893C456.628 227.747 456.083 228.594 455.527 229.434L455.945 229.71C456.502 228.866 457.05 228.016 457.587 227.158ZM454.241 232.221L453.831 231.936C453.255 232.763 452.67 233.584 452.075 234.397L452.479 234.692C453.076 233.876 453.663 233.052 454.241 232.221ZM450.658 237.12L450.262 236.815C449.648 237.614 449.024 238.406 448.392 239.19L448.781 239.504C449.416 238.717 450.042 237.922 450.658 237.12ZM446.848 241.843L446.466 241.52C445.815 242.289 445.154 243.051 444.485 243.804L444.859 244.136C445.531 243.38 446.194 242.615 446.848 241.843ZM442.817 246.381L442.451 246.04C441.765 246.777 441.069 247.507 440.365 248.228L440.723 248.577C441.429 247.853 442.128 247.121 442.817 246.381ZM438.577 250.723L438.228 250.365C437.507 251.069 436.777 251.765 436.04 252.451L436.381 252.817C437.121 252.128 437.853 251.429 438.577 250.723ZM434.136 254.859L433.804 254.485C433.051 255.154 432.289 255.815 431.52 256.466L431.843 256.847C432.615 256.194 433.38 255.531 434.136 254.859ZM429.504 258.781L429.19 258.392C428.406 259.024 427.615 259.648 426.815 260.262L427.12 260.658C427.922 260.042 428.717 259.416 429.504 258.781ZM424.692 262.479L424.397 262.075C423.584 262.67 422.763 263.255 421.936 263.831L422.221 264.241C423.052 263.663 423.876 263.076 424.692 262.479ZM419.71 265.945L419.434 265.527C418.594 266.083 417.747 266.628 416.893 267.164L417.158 267.587C418.016 267.05 418.866 266.502 419.71 265.945ZM414.568 269.169L414.313 268.74C413.447 269.254 412.575 269.759 411.697 270.253L411.942 270.689C412.824 270.193 413.7 269.686 414.568 269.169ZM409.279 272.146L409.045 271.705C408.156 272.177 407.261 272.64 406.36 273.092L406.584 273.539C407.489 273.085 408.387 272.621 409.279 272.146ZM403.854 274.867L403.641 274.415C402.731 274.844 401.815 275.263 400.893 275.672L401.096 276.129C402.021 275.719 402.941 275.298 403.854 274.867ZM398.305 277.325L398.114 276.863C397.185 277.249 396.25 277.623 395.309 277.987L395.49 278.453C396.434 278.088 397.372 277.712 398.305 277.325ZM392.645 279.515L392.476 279.045C391.53 279.385 390.578 279.714 389.621 280.032L389.779 280.507C390.74 280.187 391.695 279.857 392.645 279.515ZM386.886 281.431L386.74 280.953C385.778 281.247 384.812 281.531 383.842 281.802L383.977 282.284C384.951 282.011 385.921 281.727 386.886 281.431ZM381.041 283.069L380.918 282.584C379.944 282.832 378.966 283.068 377.984 283.293L378.096 283.781C379.082 283.555 380.064 283.317 381.041 283.069ZM375.125 284.424L375.025 283.934C374.041 284.135 373.053 284.324 372.062 284.502L372.15 284.994C373.145 284.816 374.137 284.626 375.125 284.424ZM369.151 285.495L369.075 285.001C368.083 285.154 367.087 285.296 366.088 285.427L366.153 285.922C367.156 285.791 368.155 285.649 369.151 285.495ZM363.134 286.28L363.081 285.782C362.083 285.888 361.082 285.983 360.077 286.066L360.118 286.564C361.127 286.481 362.132 286.386 363.134 286.28ZM357.087 286.778L357.058 286.279C356.056 286.338 355.05 286.385 354.042 286.42L354.059 286.92C355.072 286.884 356.081 286.837 357.087 286.778ZM351.024 286.991L351.018 286.491C350.513 286.497 350.007 286.5 349.5 286.5C348.993 286.5 348.487 286.497 347.982 286.491L347.976 286.991C348.483 286.997 348.991 287 349.5 287C350.009 287 350.517 286.997 351.024 286.991ZM344.941 286.92L344.958 286.42C343.95 286.385 342.944 286.338 341.942 286.279L341.912 286.778C342.919 286.837 343.928 286.884 344.941 286.92ZM338.882 286.564L338.923 286.066C337.918 285.983 336.917 285.888 335.918 285.782L335.866 286.28C336.868 286.386 337.873 286.481 338.882 286.564ZM332.847 285.922L332.912 285.427C331.913 285.296 330.917 285.154 329.925 285.001L329.849 285.495C330.845 285.649 331.844 285.791 332.847 285.922ZM326.85 284.994L326.938 284.502C325.947 284.324 324.959 284.135 323.975 283.934L323.875 284.424C324.863 284.626 325.854 284.816 326.85 284.994ZM320.904 283.781L321.016 283.293C320.034 283.068 319.055 282.832 318.082 282.584L317.959 283.069C318.936 283.317 319.918 283.555 320.904 283.781ZM315.023 282.284L315.158 281.802C314.188 281.53 313.222 281.247 312.26 280.953L312.114 281.431C313.079 281.727 314.049 282.011 315.023 282.284ZM309.221 280.507L309.379 280.032C308.422 279.714 307.47 279.385 306.524 279.045L306.355 279.515C307.305 279.857 308.26 280.187 309.221 280.507ZM303.51 278.453L303.691 277.987C302.75 277.623 301.815 277.249 300.886 276.863L300.695 277.325C301.628 277.712 302.566 278.088 303.51 278.453ZM297.904 276.129L298.107 275.672C297.185 275.263 296.269 274.844 295.359 274.415L295.146 274.867C296.059 275.298 296.979 275.719 297.904 276.129ZM292.416 273.539L292.64 273.092C291.739 272.64 290.844 272.177 289.955 271.705L289.721 272.146C290.613 272.621 291.511 273.085 292.416 273.539ZM287.058 270.689L287.303 270.253C286.425 269.759 285.553 269.254 284.687 268.74L284.432 269.17C285.3 269.686 286.176 270.193 287.058 270.689ZM281.842 267.588L282.107 267.164C281.253 266.628 280.406 266.083 279.566 265.527L279.29 265.945C280.134 266.502 280.984 267.05 281.842 267.588ZM276.779 264.241L277.064 263.831C276.237 263.255 275.416 262.67 274.603 262.075L274.308 262.479C275.124 263.076 275.948 263.663 276.779 264.241ZM271.88 260.658L272.185 260.262C271.386 259.648 270.594 259.024 269.81 258.392L269.496 258.781C270.283 259.416 271.078 260.042 271.88 260.658ZM267.157 256.848L267.48 256.466C266.711 255.815 265.949 255.154 265.196 254.485L264.864 254.859C265.62 255.531 266.385 256.194 267.157 256.848ZM262.619 252.817L262.96 252.451C262.223 251.765 261.493 251.069 260.773 250.365L260.423 250.723C261.147 251.429 261.879 252.128 262.619 252.817ZM258.277 248.577L258.635 248.228C257.931 247.507 257.236 246.777 256.549 246.04L256.183 246.381C256.872 247.121 257.571 247.853 258.277 248.577ZM254.141 244.136L254.515 243.804C253.846 243.051 253.185 242.289 252.534 241.52L252.153 241.843C252.806 242.615 253.469 243.38 254.141 244.136ZM250.219 239.504L250.608 239.19C249.976 238.406 249.352 237.615 248.738 236.815L248.342 237.12C248.958 237.922 249.584 238.717 250.219 239.504ZM246.521 234.692L246.925 234.397C246.33 233.584 245.745 232.763 245.169 231.936L244.759 232.221C245.337 233.052 245.924 233.876 246.521 234.692ZM243.055 229.71L243.473 229.434C242.917 228.594 242.372 227.747 241.836 226.893L241.413 227.158C241.95 228.016 242.498 228.866 243.055 229.71ZM239.831 224.568L240.26 224.313C239.746 223.447 239.241 222.575 238.747 221.697L238.311 221.942C238.807 222.824 239.314 223.7 239.831 224.568ZM236.854 219.279L237.295 219.045C236.823 218.156 236.36 217.261 235.908 216.36L235.461 216.584C235.915 217.489 236.379 218.387 236.854 219.279ZM234.133 213.854L234.585 213.641C234.156 212.731 233.737 211.815 233.328 210.893L232.871 211.096C233.281 212.021 233.702 212.941 234.133 213.854ZM231.675 208.305L232.137 208.114C231.751 207.185 231.377 206.25 231.013 205.309L230.547 205.49C230.912 206.434 231.288 207.372 231.675 208.305ZM229.485 202.645L229.955 202.476C229.615 201.53 229.286 200.578 228.968 199.621L228.493 199.779C228.813 200.74 229.143 201.695 229.485 202.645ZM227.569 196.886L228.047 196.74C227.753 195.778 227.47 194.812 227.198 193.842L226.716 193.977C226.989 194.951 227.273 195.921 227.569 196.886ZM225.931 191.041L226.416 190.918C226.168 189.944 225.932 188.966 225.707 187.984L225.219 188.096C225.445 189.082 225.683 190.064 225.931 191.041ZM224.576 185.125L225.066 185.025C224.865 184.041 224.676 183.053 224.498 182.062L224.006 182.15C224.184 183.145 224.374 184.137 224.576 185.125ZM223.505 179.151L223.999 179.075C223.846 178.083 223.704 177.087 223.573 176.088L223.078 176.153C223.209 177.156 223.351 178.155 223.505 179.151ZM222.72 173.134L223.218 173.081C223.112 172.083 223.017 171.082 222.934 170.077L222.436 170.118C222.519 171.127 222.614 172.132 222.72 173.134ZM222.222 167.087L222.721 167.058C222.662 166.056 222.615 165.05 222.58 164.042L222.08 164.059C222.116 165.072 222.163 166.081 222.222 167.087ZM222.009 161.024C222.003 160.517 222 160.009 222 159.5C222 158.991 222.003 158.483 222.009 157.976L222.509 157.982C222.503 158.487 222.5 158.993 222.5 159.5C222.5 160.007 222.503 160.513 222.509 161.018L222.009 161.024ZM222.08 154.941L222.58 154.958C222.615 153.95 222.662 152.944 222.721 151.942L222.222 151.912C222.163 152.919 222.116 153.928 222.08 154.941ZM222.436 148.882L222.934 148.923C223.017 147.918 223.112 146.917 223.218 145.918L222.72 145.866C222.614 146.868 222.519 147.873 222.436 148.882ZM223.078 142.847L223.573 142.912C223.704 141.913 223.846 140.917 223.999 139.925L223.505 139.849C223.351 140.845 223.209 141.844 223.078 142.847ZM224.006 136.85L224.498 136.938C224.676 135.947 224.865 134.959 225.066 133.975L224.576 133.875C224.374 134.863 224.184 135.854 224.006 136.85ZM225.219 130.904L225.707 131.016C225.932 130.034 226.168 129.056 226.416 128.082L225.931 127.959C225.683 128.936 225.445 129.918 225.219 130.904ZM226.716 125.023L227.198 125.158C227.47 124.188 227.753 123.222 228.047 122.26L227.569 122.114C227.273 123.079 226.989 124.049 226.716 125.023ZM228.493 119.221L228.968 119.379C229.286 118.422 229.615 117.47 229.955 116.524L229.485 116.355C229.143 117.305 228.813 118.26 228.493 119.221ZM230.547 113.51L231.013 113.691C231.377 112.75 231.751 111.815 232.137 110.886L231.675 110.695C231.288 111.628 230.912 112.566 230.547 113.51ZM232.871 107.904L233.328 108.107C233.737 107.185 234.156 106.269 234.585 105.359L234.133 105.146C233.702 106.059 233.281 106.979 232.871 107.904ZM235.461 102.416L235.908 102.64C236.36 101.739 236.823 100.844 237.295 99.9553L236.854 99.7206C236.379 100.613 235.915 101.511 235.461 102.416ZM238.311 97.058L238.747 97.3032C239.241 96.4247 239.746 95.5526 240.26 94.6871L239.83 94.4316C239.314 95.3004 238.807 96.176 238.311 97.058ZM241.413 91.8416L241.836 92.1073C242.372 91.2533 242.917 90.4062 243.473 89.566L243.055 89.2903C242.498 90.1338 241.95 90.9843 241.413 91.8416ZM244.759 86.7786L245.169 87.0641C245.745 86.2366 246.33 85.4163 246.925 84.6033L246.521 84.3081C245.924 85.1243 245.337 85.9478 244.759 86.7786ZM248.342 81.8801L248.738 82.1847C249.352 81.3855 249.976 80.5938 250.608 79.8098L250.219 79.4958C249.584 80.2829 248.958 81.0777 248.342 81.8801ZM252.152 77.1568L252.534 77.4799C253.185 76.7108 253.846 75.9495 254.515 75.1962L254.141 74.8641C253.469 75.6204 252.806 76.3847 252.152 77.1568ZM256.183 72.6192L256.549 72.96C257.235 72.2226 257.931 71.4934 258.635 70.7725L258.277 70.4232C257.571 71.1469 256.872 71.8789 256.183 72.6192ZM260.423 68.2774L260.772 68.6351C261.493 67.931 262.223 67.2355 262.96 66.5487L262.619 66.1828C261.879 66.8723 261.147 67.5706 260.423 68.2774ZM264.864 64.1409L265.196 64.5147C265.949 63.8456 266.711 63.1854 267.48 62.5341L267.157 62.1525C266.385 62.8063 265.62 63.4692 264.864 64.1409ZM269.496 60.2191L269.81 60.6082C270.594 59.9757 271.385 59.3522 272.185 58.7381L271.88 58.3416C271.078 58.9582 270.283 59.584 269.496 60.2191ZM274.308 56.5211L274.603 56.9247C275.416 56.33 276.237 55.7448 277.064 55.1692L276.779 54.7588C275.948 55.3366 275.124 55.9241 274.308 56.5211ZM279.29 53.0555L279.566 53.4726C280.406 52.9174 281.253 52.3718 282.107 51.8361L281.842 51.4125C280.984 51.9503 280.134 52.498 279.29 53.0555ZM284.432 49.8305L284.687 50.2603C285.553 49.7457 286.425 49.2411 287.303 48.7466L287.058 48.3109C286.176 48.8073 285.3 49.3139 284.432 49.8305ZM289.721 46.854L289.955 47.2954C290.844 46.8228 291.739 46.3604 292.64 45.9084L292.416 45.4615C291.511 45.9152 290.613 46.3795 289.721 46.854ZM295.146 44.1332L295.359 44.5853C296.269 44.1558 297.185 43.7367 298.107 43.3283L297.904 42.8712C296.979 43.2812 296.059 43.7019 295.146 44.1332ZM300.695 41.6748L300.886 42.1366C301.815 41.7513 302.75 41.3766 303.691 41.0128L303.51 40.5465C302.566 40.9117 301.628 41.2879 300.695 41.6748ZM306.355 39.4849L306.524 39.9555C307.47 39.6152 308.422 39.2859 309.379 38.9676L309.221 38.4932C308.26 38.8127 307.305 39.1433 306.355 39.4849ZM312.114 37.569L312.26 38.0471C313.222 37.7527 314.188 37.4695 315.158 37.1975L315.023 36.7161C314.049 36.9891 313.079 37.2735 312.114 37.569ZM317.959 35.9314L318.082 36.416C319.056 36.1682 320.034 35.9317 321.016 35.7066L320.904 35.2192C319.918 35.4452 318.936 35.6827 317.959 35.9314ZM323.875 34.5758L323.975 35.0657C324.959 34.865 325.947 34.6757 326.938 34.4979L326.85 34.0058C325.855 34.1843 324.863 34.3743 323.875 34.5758ZM329.849 33.5051L329.925 33.9992C330.917 33.8458 331.913 33.7038 332.912 33.5735L332.847 33.0777C331.844 33.2085 330.845 33.351 329.849 33.5051ZM335.866 32.7204L335.919 33.2176C336.917 33.1115 337.918 33.017 338.923 32.9341L338.882 32.4358C337.873 32.519 336.868 32.6139 335.866 32.7204ZM341.913 32.222L341.942 32.7212C342.944 32.6623 343.95 32.6151 344.958 32.5797L344.941 32.08C343.928 32.1156 342.919 32.163 341.913 32.222ZM347.976 32.0089L347.982 32.5089C348.487 32.503 348.993 32.5 349.5 32.5C350.007 32.5 350.513 32.503 351.018 32.5089L351.024 32.0089C350.517 32.003 350.009 32 349.5 32C348.991 32 348.483 32.003 347.976 32.0089ZM354.059 32.08L354.042 32.5797C355.05 32.6151 356.056 32.6624 357.058 32.7212L357.088 32.222C356.081 32.163 355.072 32.1156 354.059 32.08ZM360.118 32.4358L360.077 32.9342C361.082 33.017 362.083 33.1115 363.082 33.2177L363.134 32.7205C362.132 32.6139 361.127 32.519 360.118 32.4358ZM366.153 33.0777L366.088 33.5735C367.087 33.7038 368.083 33.8458 369.075 33.9992L369.151 33.5051C368.155 33.3511 367.156 33.2085 366.153 33.0777ZM372.15 34.0058L372.062 34.4979C373.053 34.6757 374.041 34.8651 375.025 35.0657L375.125 34.5758C374.137 34.3744 373.146 34.1843 372.15 34.0058ZM378.096 35.2193L377.984 35.7066C378.966 35.9317 379.945 36.1682 380.918 36.416L381.041 35.9314C380.064 35.6827 379.082 35.4453 378.096 35.2193ZM383.977 36.7161L383.842 37.1975C384.812 37.4695 385.778 37.7528 386.74 38.0471L386.886 37.569C385.921 37.2735 384.951 36.9891 383.977 36.7161ZM389.779 38.4932L389.621 38.9676C390.578 39.2859 391.53 39.6152 392.476 39.9555L392.645 39.485C391.695 39.1433 390.74 38.8127 389.779 38.4932ZM395.49 40.5465L395.309 41.0128C396.25 41.3766 397.185 41.7513 398.114 42.1366L398.305 41.6748C397.372 41.2879 396.434 40.9117 395.49 40.5465ZM401.096 42.8712L400.893 43.3283C401.815 43.7367 402.731 44.1558 403.641 44.5853L403.854 44.1331C402.941 43.7019 402.021 43.2812 401.096 42.8712ZM406.584 45.4614L406.36 45.9084C407.261 46.3604 408.156 46.8228 409.045 47.2954L409.279 46.854C408.387 46.3794 407.489 45.9152 406.584 45.4614ZM411.942 48.3109L411.697 48.7466C412.575 49.2411 413.447 49.7457 414.313 50.2603L414.568 49.8305C413.7 49.3139 412.824 48.8073 411.942 48.3109ZM417.158 51.4125L416.893 51.8361C417.747 52.3718 418.594 52.9173 419.434 53.4726L419.71 53.0555C418.866 52.498 418.016 51.9503 417.158 51.4125ZM422.221 54.7587L421.936 55.1692C422.763 55.7448 423.584 56.33 424.397 56.9247L424.692 56.5211C423.876 55.9241 423.052 55.3366 422.221 54.7587ZM427.12 58.3416L426.815 58.738C427.614 59.3522 428.406 59.9756 429.19 60.6082L429.504 60.2191C428.717 59.584 427.922 58.9581 427.12 58.3416ZM431.843 62.1525L431.52 62.5341C432.289 63.1853 433.051 63.8456 433.804 64.5147L434.136 64.1408C433.38 63.4691 432.615 62.8063 431.843 62.1525ZM436.381 66.1828L436.04 66.5486C436.777 67.2355 437.507 67.931 438.227 68.635L438.577 68.2773C437.853 67.5705 437.121 66.8723 436.381 66.1828ZM440.723 70.4231L440.365 70.7725C441.069 71.4934 441.764 72.2226 442.451 72.96L442.817 72.6192C442.128 71.8789 441.429 71.1468 440.723 70.4231ZM444.859 74.8641L444.485 75.1961C445.154 75.9494 445.815 76.7107 446.466 77.4799L446.847 77.1568C446.194 76.3846 445.531 75.6203 444.859 74.8641ZM448.781 79.4958L448.392 79.8098C449.024 80.5938 449.648 81.3855 450.262 82.1847L450.658 81.88C450.042 81.0777 449.416 80.2829 448.781 79.4958ZM452.479 84.3081L452.075 84.6032C452.67 85.4162 453.255 86.2365 453.831 87.064L454.241 86.7785C453.663 85.9478 453.076 85.1242 452.479 84.3081ZM455.945 89.2903L455.527 89.566C456.083 90.4061 456.628 91.2533 457.164 92.1073L457.587 91.8416C457.05 90.9842 456.502 90.1337 455.945 89.2903ZM459.169 94.4315L458.74 94.6871C459.254 95.5525 459.759 96.4246 460.253 97.3032L460.689 97.058C460.193 96.1759 459.686 95.3004 459.169 94.4315ZM462.146 99.7205L461.705 99.9553C462.177 100.844 462.64 101.739 463.092 102.64L463.539 102.416C463.085 101.511 462.621 100.613 462.146 99.7205ZM464.867 105.146L464.415 105.359C464.844 106.269 465.263 107.185 465.672 108.107L466.129 107.904C465.719 106.979 465.298 106.059 464.867 105.146ZM467.325 110.695L466.863 110.886C467.249 111.815 467.623 112.75 467.987 113.691L468.453 113.51C468.088 112.566 467.712 111.628 467.325 110.695ZM469.515 116.355L469.045 116.524C469.385 117.47 469.714 118.422 470.032 119.379L470.507 119.221C470.187 118.26 469.857 117.305 469.515 116.355ZM471.431 122.114L470.953 122.26C471.247 123.222 471.531 124.188 471.802 125.158L472.284 125.023C472.011 124.049 471.727 123.079 471.431 122.114ZM473.069 127.959L472.584 128.082C472.832 129.056 473.068 130.034 473.293 131.016L473.781 130.904C473.555 129.918 473.317 128.936 473.069 127.959ZM474.424 133.875L473.934 133.975C474.135 134.959 474.324 135.947 474.502 136.938L474.994 136.85C474.816 135.855 474.626 134.863 474.424 133.875ZM475.495 139.849L475.001 139.925C475.154 140.917 475.296 141.913 475.427 142.912L475.922 142.847C475.791 141.844 475.649 140.845 475.495 139.849ZM476.28 145.866L475.782 145.919C475.888 146.917 475.983 147.918 476.066 148.923L476.564 148.882C476.481 147.873 476.386 146.868 476.28 145.866ZM476.778 151.913L476.279 151.942C476.338 152.944 476.385 153.95 476.42 154.958L476.92 154.941C476.884 153.928 476.837 152.919 476.778 151.913Z" fill="white" fill-opacity="0.3"/>
<path fill-rule="evenodd" clip-rule="evenodd" d="M349.5 267.5C409.147 267.5 457.5 219.147 457.5 159.5C457.5 99.8532 409.147 51.5 349.5 51.5C289.853 51.5 241.5 99.8532 241.5 159.5C241.5 219.147 289.853 267.5 349.5 267.5ZM349.5 268C409.423 268 458 219.423 458 159.5C458 99.5771 409.423 51 349.5 51C289.577 51 241 99.5771 241 159.5C241 219.423 289.577 268 349.5 268Z" fill="white" fill-opacity="0.3"/>
<path fill-rule="evenodd" clip-rule="evenodd" d="M336.267 319.18L335 320L334.729 319.58L335.996 318.761L336.267 319.18ZM341.337 315.903L338.802 317.542L338.531 317.122L341.065 315.483L341.337 315.903ZM346.406 312.625L343.872 314.264L343.6 313.844L346.135 312.205L346.406 312.625ZM351.476 309.347L348.941 310.986L348.669 310.566L351.204 308.927L351.476 309.347ZM356.545 306.069L354.01 307.708L353.739 307.288L356.274 305.649L356.545 306.069ZM361.615 302.792L359.08 304.43L358.808 304.011L361.343 302.372L361.615 302.792ZM366.684 299.514L364.149 301.153L363.878 300.733L366.413 299.094L366.684 299.514ZM371.753 296.236L369.219 297.875L368.947 297.455L371.482 295.816L371.753 296.236ZM376.823 292.958L374.288 294.597L374.017 294.177L376.551 292.538L376.823 292.958ZM381.892 289.68L379.358 291.319L379.086 290.899L381.621 289.261L381.892 289.68ZM386.962 286.403L384.427 288.042L384.156 287.622L386.69 285.983L386.962 286.403ZM392.031 283.125L389.497 284.764L389.225 284.344L391.76 282.705L392.031 283.125ZM397.101 279.847L394.566 281.486L394.294 281.066L396.829 279.427L397.101 279.847ZM402.17 276.569L399.635 278.208L399.364 277.788L401.899 276.15L402.17 276.569ZM407.24 273.292L404.705 274.93L404.433 274.511L406.968 272.872L407.24 273.292ZM412.309 270.014L409.774 271.653L409.503 271.233L412.038 269.594L412.309 270.014ZM417.378 266.736L414.844 268.375L414.572 267.955L417.107 266.316L417.378 266.736ZM422.448 263.458L419.913 265.097L419.642 264.677L422.176 263.038L422.448 263.458ZM427.517 260.181L424.983 261.819L424.711 261.4L427.246 259.761L427.517 260.181ZM432.587 256.903L430.052 258.542L429.781 258.122L432.315 256.483L432.587 256.903ZM437.656 253.625L435.121 255.264L434.85 254.844L437.385 253.205L437.656 253.625ZM442.726 250.347L440.191 251.986L439.919 251.566L442.454 249.927L442.726 250.347ZM447.795 247.069L445.26 248.708L444.989 248.288L447.524 246.65L447.795 247.069ZM452.865 243.792L450.33 245.431L450.058 245.011L452.593 243.372L452.865 243.792ZM457.934 240.514L455.399 242.153L455.128 241.733L457.662 240.094L457.934 240.514ZM463.003 237.236L460.469 238.875L460.197 238.455L462.732 236.816L463.003 237.236ZM468.073 233.958L465.538 235.597L465.267 235.177L467.801 233.538L468.073 233.958ZM473.142 230.681L470.608 232.319L470.336 231.9L472.871 230.261L473.142 230.681ZM478.212 227.403L475.677 229.042L475.405 228.622L477.94 226.983L478.212 227.403ZM483.281 224.125L480.746 225.764L480.475 225.344L483.01 223.705L483.281 224.125ZM488.351 220.847L485.816 222.486L485.544 222.066L488.079 220.427L488.351 220.847ZM493.42 217.569L490.885 219.208L490.614 218.788L493.149 217.15L493.42 217.569ZM498.489 214.292L495.955 215.931L495.683 215.511L498.218 213.872L498.489 214.292ZM503.559 211.014L501.024 212.653L500.753 212.233L503.287 210.594L503.559 211.014ZM508.628 207.736L506.094 209.375L505.822 208.955L508.357 207.316L508.628 207.736ZM513.698 204.458L511.163 206.097L510.892 205.677L513.426 204.038L513.698 204.458ZM518.767 201.181L516.232 202.819L515.961 202.4L518.496 200.761L518.767 201.181ZM523.837 197.903L521.302 199.542L521.03 199.122L523.565 197.483L523.837 197.903ZM528.906 194.625L526.371 196.264L526.1 195.844L528.635 194.205L528.906 194.625ZM533.976 191.347L531.441 192.986L531.169 192.566L533.704 190.927L533.976 191.347ZM539.045 188.069L536.51 189.708L536.239 189.289L538.773 187.65L539.045 188.069ZM544.114 184.792L541.58 186.431L541.308 186.011L543.843 184.372L544.114 184.792ZM549.184 181.514L546.649 183.153L546.378 182.733L548.912 181.094L549.184 181.514ZM554.253 178.236L551.719 179.875L551.447 179.455L553.982 177.816L554.253 178.236ZM559.323 174.958L556.788 176.597L556.517 176.177L559.051 174.539L559.323 174.958ZM564.392 171.681L561.857 173.32L561.586 172.9L564.121 171.261L564.392 171.681ZM569.462 168.403L566.927 170.042L566.655 169.622L569.19 167.983L569.462 168.403ZM574.531 165.125L571.996 166.764L571.725 166.344L574.26 164.705L574.531 165.125ZM579.6 161.847L577.066 163.486L576.794 163.066L579.329 161.427L579.6 161.847ZM584.67 158.57L582.135 160.208L581.864 159.789L584.398 158.15L584.67 158.57ZM589.739 155.292L587.205 156.931L586.933 156.511L589.468 154.872L589.739 155.292ZM594.809 152.014L592.274 153.653L592.003 153.233L594.537 151.594L594.809 152.014ZM599.878 148.736L597.343 150.375L597.072 149.955L599.607 148.316L599.878 148.736ZM604.948 145.458L602.413 147.097L602.141 146.677L604.676 145.039L604.948 145.458ZM610.017 142.181L607.482 143.82L607.211 143.4L609.746 141.761L610.017 142.181ZM615.087 138.903L612.552 140.542L612.28 140.122L614.815 138.483L615.087 138.903ZM620.156 135.625L617.621 137.264L617.35 136.844L619.884 135.205L620.156 135.625ZM625.225 132.347L622.691 133.986L622.419 133.566L624.954 131.927L625.225 132.347ZM630.295 129.07L627.76 130.708L627.489 130.289L630.023 128.65L630.295 129.07ZM635.364 125.792L632.83 127.431L632.558 127.011L635.093 125.372L635.364 125.792ZM640.434 122.514L637.899 124.153L637.628 123.733L640.162 122.094L640.434 122.514ZM645.503 119.236L642.968 120.875L642.697 120.455L645.232 118.816L645.503 119.236ZM650.573 115.958L648.038 117.597L647.766 117.177L650.301 115.539L650.573 115.958ZM655.642 112.681L653.107 114.32L652.836 113.9L655.371 112.261L655.642 112.681ZM660.711 109.403L658.177 111.042L657.905 110.622L660.44 108.983L660.711 109.403ZM665.781 106.125L663.246 107.764L662.975 107.344L665.509 105.705L665.781 106.125ZM670.85 102.847L668.316 104.486L668.044 104.066L670.579 102.427L670.85 102.847ZM675.92 99.5696L673.385 101.208L673.114 100.789L675.648 99.1497L675.92 99.5696ZM680.989 96.2918L678.455 97.9307L678.183 97.5108L680.718 95.8719L680.989 96.2918ZM686.059 93.0141L683.524 94.6529L683.252 94.2331L685.787 92.5942L686.059 93.0141ZM691.128 89.7363L688.593 91.3752L688.322 90.9553L690.857 89.3164L691.128 89.7363ZM696.198 86.4585L693.663 88.0974L693.391 87.6775L695.926 86.0386L696.198 86.4585ZM700 83.9999L698.732 84.8196L698.461 84.3997L699.729 83.5801L700 83.9999Z" fill="white" fill-opacity="0.3"/>
<path fill-rule="evenodd" clip-rule="evenodd" d="M1.25347 233.187L0 234L-0.271963 233.58L0.981509 232.768L1.25347 233.187ZM6.26736 229.937L3.76042 231.562L3.48845 231.143L5.9954 229.518L6.26736 229.937ZM11.2813 226.687L8.77431 228.312L8.50234 227.893L11.0093 226.268L11.2813 226.687ZM16.2951 223.437L13.7882 225.062L13.5162 224.643L16.0232 223.018L16.2951 223.437ZM21.309 220.187L18.8021 221.812L18.5301 221.393L21.0371 219.768L21.309 220.187ZM26.3229 216.937L23.816 218.562L23.544 218.143L26.051 216.518L26.3229 216.937ZM31.3368 213.687L28.8299 215.312L28.5579 214.893L31.0648 213.268L31.3368 213.687ZM36.3507 210.437L33.8438 212.062L33.5718 211.643L36.0787 210.018L36.3507 210.437ZM41.3646 207.187L38.8576 208.812L38.5857 208.393L41.0926 206.768L41.3646 207.187ZM46.3785 203.937L43.8715 205.562L43.5996 205.143L46.1065 203.518L46.3785 203.937ZM51.3924 200.687L48.8854 202.312L48.6135 201.893L51.1204 200.268L51.3924 200.687ZM56.4063 197.437L53.8993 199.062L53.6274 198.643L56.1343 197.018L56.4063 197.437ZM61.4201 194.187L58.9132 195.812L58.6412 195.393L61.1482 193.768L61.4201 194.187ZM66.434 190.937L63.9271 192.562L63.6551 192.143L66.1621 190.518L66.434 190.937ZM71.4479 187.687L68.941 189.312L68.669 188.893L71.176 187.268L71.4479 187.687ZM76.4618 184.437L73.9549 186.062L73.6829 185.643L76.1899 184.018L76.4618 184.437ZM81.4757 181.187L78.9688 182.812L78.6968 182.393L81.2038 180.768L81.4757 181.187ZM86.4896 177.937L83.9827 179.562L83.7107 179.143L86.2176 177.518L86.4896 177.937ZM91.5035 174.687L88.9966 176.312L88.7246 175.893L91.2315 174.268L91.5035 174.687ZM96.5174 171.437L94.0104 173.062L93.7385 172.643L96.2454 171.018L96.5174 171.437ZM101.531 168.187L99.0243 169.812L98.7524 169.393L101.259 167.768L101.531 168.187ZM106.545 164.937L104.038 166.562L103.766 166.143L106.273 164.518L106.545 164.937ZM111.559 161.687L109.052 163.312L108.78 162.893L111.287 161.268L111.559 161.687ZM116.573 158.437L114.066 160.062L113.794 159.643L116.301 158.018L116.573 158.437ZM121.587 155.187L119.08 156.812L118.808 156.393L121.315 154.768L121.587 155.187ZM126.601 151.937L124.094 153.562L123.822 153.143L126.329 151.518L126.601 151.937ZM131.615 148.687L129.108 150.312L128.836 149.893L131.343 148.268L131.615 148.687ZM136.628 145.437L134.122 147.062L133.85 146.643L136.356 145.018L136.628 145.437ZM141.642 142.187L139.135 143.812L138.863 143.393L141.37 141.768L141.642 142.187ZM146.656 138.937L144.149 140.562L143.877 140.143L146.384 138.518L146.656 138.937ZM151.67 135.687L149.163 137.312L148.891 136.893L151.398 135.268L151.67 135.687ZM156.684 132.437L154.177 134.062L153.905 133.643L156.412 132.018L156.684 132.437ZM161.698 129.187L159.191 130.812L158.919 130.393L161.426 128.768L161.698 129.187ZM166.712 125.937L164.205 127.562L163.933 127.143L166.44 125.518L166.712 125.937ZM171.726 122.688L169.219 124.313L168.947 123.893L171.454 122.268L171.726 122.688ZM176.739 119.438L174.233 121.063L173.961 120.643L176.468 119.018L176.739 119.438ZM181.753 116.188L179.246 117.813L178.974 117.393L181.481 115.768L181.753 116.188ZM186.767 112.938L184.26 114.563L183.988 114.143L186.495 112.518L186.767 112.938ZM191.781 109.688L189.274 111.313L189.002 110.893L191.509 109.268L191.781 109.688ZM196.795 106.438L194.288 108.063L194.016 107.643L196.523 106.018L196.795 106.438ZM201.809 103.188L199.302 104.813L199.03 104.393L201.537 102.768L201.809 103.188ZM206.823 99.9376L204.316 101.563L204.044 101.143L206.551 99.518L206.823 99.9376ZM211.837 96.6876L209.33 98.3126L209.058 97.893L211.565 96.268L211.837 96.6876ZM216.85 93.4376L214.344 95.0626L214.072 94.643L216.579 93.018L216.85 93.4376ZM221.864 90.1876L219.357 91.8126L219.085 91.393L221.592 89.768L221.864 90.1876ZM226.878 86.9376L224.371 88.5626L224.099 88.143L226.606 86.518L226.878 86.9376ZM231.892 83.6875L229.385 85.3125L229.113 84.893L231.62 83.268L231.892 83.6875ZM236.906 80.4375L234.399 82.0625L234.127 81.643L236.634 80.018L236.906 80.4375ZM241.92 77.1875L239.413 78.8125L239.141 78.393L241.648 76.768L241.92 77.1875ZM246.934 73.9375L244.427 75.5625L244.155 75.143L246.662 73.5179L246.934 73.9375ZM251.948 70.6875L249.441 72.3125L249.169 71.8929L251.676 70.2679L251.948 70.6875ZM256.962 67.4375L254.455 69.0625L254.183 68.6429L256.69 67.0179L256.962 67.4375ZM261.976 64.1875L259.469 65.8125L259.197 65.3929L261.704 63.7679L261.976 64.1875ZM266.99 60.9375L264.483 62.5625L264.211 62.1429L266.718 60.5179L266.99 60.9375ZM272.003 57.6875L269.496 59.3125L269.225 58.8929L271.731 57.2679L272.003 57.6875ZM277.017 54.4375L274.51 56.0625L274.238 55.6429L276.745 54.0179L277.017 54.4375ZM282.031 51.1874L279.524 52.8125L279.252 52.3929L281.759 50.7679L282.031 51.1874ZM287.045 47.9374L284.538 49.5624L284.266 49.1429L286.773 47.5179L287.045 47.9374ZM292.059 44.6874L289.552 46.3124L289.28 45.8929L291.787 44.2679L292.059 44.6874ZM297.073 41.4374L294.566 43.0624L294.294 42.6429L296.801 41.0179L297.073 41.4374ZM302.087 38.1874L299.58 39.8124L299.308 39.3928L301.815 37.7678L302.087 38.1874ZM307.101 34.9374L304.594 36.5624L304.322 36.1428L306.829 34.5178L307.101 34.9374ZM312.115 31.6874L309.608 33.3124L309.336 32.8928L311.843 31.2678L312.115 31.6874ZM317.129 28.4374L314.622 30.0624L314.35 29.6428L316.857 28.0178L317.129 28.4374ZM322.142 25.1874L319.636 26.8124L319.364 26.3928L321.871 24.7678L322.142 25.1874ZM327.156 21.9374L324.649 23.5624L324.377 23.1428L326.884 21.5178L327.156 21.9374ZM332.17 18.6874L329.663 20.3124L329.391 19.8928L331.898 18.2678L332.17 18.6874ZM337.184 15.4373L334.677 17.0623L334.405 16.6428L336.912 15.0178L337.184 15.4373ZM342.198 12.1873L339.691 13.8123L339.419 13.3928L341.926 11.7678L342.198 12.1873ZM347.212 8.93732L344.705 10.5623L344.433 10.1428L346.94 8.51775L347.212 8.93732ZM352.226 5.68731L349.719 7.31232L349.447 6.89275L351.954 5.26775L352.226 5.68731ZM357.24 2.4373L354.733 4.06231L354.461 3.64274L356.968 2.01774L357.24 2.4373ZM361 -5.5463e-05L359.747 0.812298L359.475 0.392731L360.728 -0.419622L361 -5.5463e-05Z" fill="white" fill-opacity="0.3"/>
<defs>
<filter id="filter0_f_205_19" x="-118.495" y="-267.282" width="808.379" height="791.156" filterUnits="userSpaceOnUse" color-interpolation-filters="sRGB">
<feFlood flood-opacity="0" result="BackgroundImageFix"/>
<feBlend mode="normal" in="SourceGraphic" in2="BackgroundImageFix" result="shape"/>
<feGaussianBlur stdDeviation="150" result="effect1_foregroundBlur_205_19"/>
</filter>
<filter id="filter1_f_205_19" x="18.6354" y="-288.643" width="784.503" height="835.282" filterUnits="userSpaceOnUse" color-interpolation-filters="sRGB">
<feFlood flood-opacity="0" result="BackgroundImageFix"/>
<feBlend mode="normal" in="SourceGraphic" in2="BackgroundImageFix" result="shape"/>
<feGaussianBlur stdDeviation="150" result="effect1_foregroundBlur_205_19"/>
</filter>
<filter id="filter2_f_205_19" x="-73.1576" y="-134.312" width="844.309" height="743.233" filterUnits="userSpaceOnUse" color-interpolation-filters="sRGB">
<feFlood flood-opacity="0" result="BackgroundImageFix"/>
<feBlend mode="normal" in="SourceGraphic" in2="BackgroundImageFix" result="shape"/>
<feGaussianBlur stdDeviation="150" result="effect1_foregroundBlur_205_19"/>
</filter>
<linearGradient id="paint0_linear_205_19" x1="290.672" y1="99.8189" x2="410.032" y2="218.473" gradientUnits="userSpaceOnUse">
<stop stop-color="#1E2A48"/>
<stop offset="1" stop-color="#111827"/>
</linearGradient>
<clipPath id="clip0_205_19">
<rect width="168" height="169" fill="white" transform="translate(266 75)"/>
</clipPath>
</defs>
</svg>
